<?xml version="1.0" encoding="iso-8859-1"?>
<!-- Generator: Adobe Illustrator 17.1.0, SVG Export Plug-In . SVG Version: 6.00 Build 0)  -->
<!DOCTYPE svg PUBLIC "-//W3C//DTD SVG 1.1//EN" "http://www.w3.org/Graphics/SVG/1.1/DTD/svg11.dtd">
<svg version="1.1" id="Capa_1" xmlns="http://www.w3.org/2000/svg" xmlns:xlink="http://www.w3.org/1999/xlink" x="0px" y="0px"
	 viewBox="0 0 245.298 245.298" style="enable-background:new 0 0 245.298 245.298;" xml:space="preserve">
<g>
	<path d="M245.065,163.016l-10.549-49.754c-1.512-7.127-6.08-17.82-10.183-23.836l-2.517-3.691l1.258-0.267
		c5.748-1.219,9.434-6.888,8.216-12.637l-1.238-5.836c-0.898-4.241-4.062-6.981-8.06-6.981c-1.462,0-2.924,0.373-4.345,1.109
		l-9.323,4.827l-15.591-22.864c-3.682-5.4-11.18-9.171-18.233-9.171c-1.277,0-2.518,0.125-3.686,0.373l-96.215,20.4
		c-7.67,1.626-15.056,9.224-16.464,16.937l-4.965,27.187l-10.348-0.62c-3.059-0.182-5.682,0.905-7.383,3.005
		c-1.605,1.981-2.164,4.607-1.573,7.396l1.238,5.837c1.036,4.895,5.425,8.447,10.434,8.447c0.736,0,1.478-0.078,2.202-0.231
		l1.121-0.238l-0.803,4.395c-1.309,7.168-1.145,18.794,0.367,25.918l10.549,49.753c1.037,4.895,5.426,8.447,10.435,8.447
		c0.736,0,1.478-0.078,2.202-0.232l13.617-2.887c5.749-1.219,9.434-6.888,8.215-12.637l-2.634-12.425L207.963,157.9l2.634,12.424
		c1.037,4.895,5.426,8.447,10.435,8.447c0.736,0,1.477-0.078,2.202-0.231l13.617-2.887
		C242.599,174.434,246.284,168.765,245.065,163.016z M64.048,113.27l7.519-41.18c0.842-4.613,5.285-9.184,9.872-10.156
		l86.065-18.248c4.587-0.973,10.502,1.401,13.143,5.276l23.582,34.584c2.642,3.875,1.049,7.841-3.538,8.813L70.857,119.889
		C66.27,120.862,63.206,117.883,64.048,113.27z M105.639,158.879l-29.545,6.264c-2.293,0.486-4.568-0.992-5.055-3.286l-3.006-14.178
		c-0.486-2.293,0.992-4.568,3.285-5.055l29.547-6.264c2.293-0.486,4.567,0.993,5.054,3.286l3.006,14.178
		C109.412,156.117,107.932,158.392,105.639,158.879z M213.991,135.905l-29.543,6.264c-2.293,0.486-4.568-0.993-5.055-3.286
		l-3.006-14.178c-0.486-2.294,0.992-4.568,3.285-5.055l29.543-6.264c2.293-0.486,4.568,0.992,5.055,3.286l3.006,14.178
		C217.762,133.144,216.284,135.419,213.991,135.905z"/>
	<path d="M43.554,195.67c-12.274-3.42-28.097-5.858-41.586,5.758c-2.371,2.041-2.638,5.618-0.596,7.988
		c1.12,1.301,2.703,1.968,4.295,1.968c1.309,0,2.624-0.451,3.693-1.372c7.547-6.499,16.573-7.491,31.152-3.429
		c3.016,0.842,6.138-0.923,6.978-3.936C48.33,199.633,46.568,196.51,43.554,195.67z"/>
	<path d="M11.15,164.722c9.956,0.255,17.309,5.582,25.376,18.387c1.077,1.71,2.917,2.646,4.799,2.646
		c1.031,0,2.076-0.282,3.014-0.873c2.647-1.668,3.44-5.166,1.773-7.812c-6.794-10.782-16.875-23.217-34.671-23.673
		c-3.113-0.118-5.729,2.389-5.809,5.518C5.553,162.042,8.023,164.642,11.15,164.722z"/>
</g>
<g>
</g>
<g>
</g>
<g>
</g>
<g>
</g>
<g>
</g>
<g>
</g>
<g>
</g>
<g>
</g>
<g>
</g>
<g>
</g>
<g>
</g>
<g>
</g>
<g>
</g>
<g>
</g>
<g>
</g>
</svg>
